<?xml version="1.0" encoding="UTF-8"?>
<svg viewBox="0 0 599.99988 508.56302" xmlns="http://www.w3.org/2000/svg">
 <g transform="matrix(1.6976 0 0 1.6976 -463.9 -255.34)">
  <path d="m569.39 394.11c-10.774 2.8852-22.271 3.813-32.735 7.3813 17.723-15.196 16.711-38.708 28.535-56.606 3.7666-5.0674 6.8799-10.379 11.27-15.188-7.1924 14.428-4.0732 33.146-12.336 47.147-3.1807 5.5615-7.7295 10.957-12.76 15.325 1.6436-0.06152 3.082-1.4844 4.5274-2.4346 13.421-13.393 30.954-17.138 45.472-28.019 5.8154-4.6338 11.142-10.706 13.698-17.273-2.7471 22.22-24.853 43.046-45.672 49.666z"/>
  <path d="m617.74 304.15c-6.5664 9.3438-14.51 18.042-20.576 27.538 0.67676-7.5186 1.5674-16.764-1.3613-23.886-5.0752-15.337-9.5342-30.909-10.973-47.741l0.19824-6.4365c3.8193 17.189 20.705 29.006 19.64 48.287 0.38671 4.6728-1.0586 8.6455-1.9336 12.755l0.29004 0.30371 0.76074-0.85254c2.5039-9.458 3.7676-19.403 7.6611-28.228 5.5332-12.698 12.442-25.514 9.627-40.846 8.416 18.076 5.8662 42.228-3.333 59.105z"/>
  <path d="m607.37 206.76c11.072 15.005 13.499 38.918 5.4346 56.13-3.0059 7.2939-5.1289 15.066-6.3096 23.14-0.56347-1.3926-0.69238-3.2646-1.1953-4.8164-4.4043-16.848-20.338-28.854-26.891-44.739-2.0781-5.1943-3.8496-10.562-4.832-16.2 7.002 12.95 24.258 19.639 28.961 33.911 1.9268 3.6094 1.8184 8.1191 3.0137 12 0.25098 0 0.50196-0.18653 0.50196-0.44141-2.0703-14.701-1.4385-30.087 0.55664-44.606-0.11524-7.8642-0.88281-15.493-5.252-21.58 2.8018 1.6323 4.0635 4.7676 6.0117 7.2026z"/>
  <path d="m599.56 203.88c2.9082 13.149-1.3398 25.955 1.332 39.23l-0.0996 0.11426c-7.1533-14.066-22.34-20.705-32.789-31.963-6.0557-6.6807-8.6885-14.823-10.203-23.444 5.9873 14.435 22.144 17.615 31.419 29.779 3.1035 2.8042 4.1162 6.689 6.1172 9.8691l0.32715-0.31592c-5.334-11.387-7.1211-24.201-10.843-36.345-1.8633-5.2622-5.5615-10.433-10.523-13.75 12.176 2.4883 22.729 15.2 25.263 26.827z"/>
  <path d="m567.01 173.72c9.1699 8.207 13.317 18.834 15.995 29.844l1.5146 3.4966c-13.31-9.5723-25.4-22.44-33.899-36.03l-10.38-10.501c9.125 3.8691 18.963 6.1787 26.77 13.19z"/>
  <path d="m356.81 162.27c-9.2002 8.0654-15.581 18.266-22.406 27.777-6.1182 7.5752-13.944 12.57-20.88 19.084 3.7441-7.7617 3.8809-17.033 9.1914-24.163 7.5566-13.184 21.569-17.822 34.095-22.699z"/>
  <path d="m306.49 190.36c4.4746-5.5625 10.147-9.4282 16.531-11.061-12.396 8.5151-11.589 23.775-15.519 36.46-1.2529 4.6909-3.4287 9.0127-4.5127 13.821l0.31543 0.25098c2.0625-5.436 5.6875-10.572 10.212-15.008 8.8037-8.127 21.827-13.192 26.142-25.214-0.19726 16.706-14.134 29.84-27.469 39.229-5.499 4.8242-10.802 10.322-13.83 16.524-0.29687-4.2148 0.62305-8.4468 0.32325-12.962-1.4502-14.584-2.5039-31.229 7.8066-42.042z"/>
  <path d="m281.41 240.23c-0.37305-14.778 5.7607-26.842 14.404-37.853 0.25097-0.12549 0.42968-0.37646 0.75293-0.31592-9.5146 14.458-1.6436 32.67-2.0772 49.11l-1.2549 16.832c0.18653 0.12207 0.18653 0.62793 0.62793 0.43359 0.5625-1.876 0.68457-3.8809 1.0606-5.8106 2.2412-13.577 14.032-23.211 24.331-32.594 2.1992-2.4541 4.1436-4.9458 5.2734-7.8257-0.84082 6.7602-2.96 13.579-5.7646 19.831-8.0156 15.632-22.823 28.458-25.528 46.354-1.3125-17.15-12.989-29.973-11.825-48.162z"/>
  <path d="m274.21 261.24c1.0654-4.6221 1.8799-9.4053 3.8916-13.646-3.8115 19.537 9.3291 33.614 13.64 50.549 1.8037 6.334 2.2451 13.137 4.8242 19.08 0.24023 0.12988 0.44921-0.1211 0.59765-0.31153-6.418-17.989 2.8467-34.706 12.156-48.791 2.2637-3.8164 3.5684-8.0664 4.6943-12.453 0.98926 8.1416-1.0693 17.518-2.252 25.971-2.2637 10.756-5.6426 20.956-8.584 31.393-1.9356 6.5215-1.4268 13.879-0.43262 20.712l-0.93261-0.74512c-6.8252-12.586-20.34-22.402-24.354-36.152-3.3027-10.962-5.498-23.66-3.249-35.604z"/>
  <path d="m273.6 299.4c1.5029 20.708 23.771 31.65 34.094 48.794 2.4424 3.5078 4.5615 7.3887 7.8252 10.325-0.50976-2.2061-2.5684-4.0625-3.3242-6.3223-3.6113-7.1904-4.9277-15.759-4.0596-24.449 1-10.577 5.4365-20.393 3.7432-31.518 9.0703 19.557 6.3154 43.967 11.387 65.158 1.3281 4.6348 4.0107 8.7734 5.7686 13.203-18.636-12.692-44.047-24.769-52.314-48.03-3.4844-8.0205-3.873-17.95-3.1191-27.161z"/>
  <path d="m284.73 346.96c10.391 23.506 36.414 25.453 53.862 39.767 3.2109 2.8457 6.5752 5.2656 10.2 6.9541l0.18653-0.18945c-4.0059-3.6221-8.6396-7.7471-11.444-12.441-10.212-14.199-6.6201-34.09-14.271-49.361 6.9521 8.3164 13.274 16.961 17.472 26.396 6.2432 15.401 8.6289 32.797 23.075 44.439-15.634-5.1524-33.949-3.7129-47.748-13.339-15.066-9.2598-28.513-24.966-31.332-42.224z"/>
  <path d="m311.43 390.81c16.66 18.948 43.883 12.625 66.075 17.584 3.1348 0.42774 6.0039 1.6836 9.3262 1.1738-2.6455-1.6738-6.3164-1.4922-9.2041-3.0137-17.396-6.1113-19.947-24.944-29.391-37.643 12.064 8.0117 22.207 18.817 33.337 29.288 8 7.0078 17.63 10.242 27.776 12.305-2.4385 0.89062-5.6348 0.64648-8.252 1.332-18.229 4.4824-38.48 11.809-57.812 5.25-12.567-3.957-25.533-13.895-31.856-26.276z"/>
  <path d="m537.56 434.97c-18.773 7.0059-38.366-0.32031-53.029-11.439-5.9365-3.7734-11.17-9.207-18.849-8.7266-2.7852-0.05274-5.4707 0.08398-7.8379 0.76758 14.245 6.6289 27.478 15.768 39.576 27.455-2.0391 2.3281-4.6797 4.5058-7.167 6.5137-11.659-12.562-24.571-24.654-39.028-31.717-2.831 0.36719-5.5244 2.0703-8.0772 3.4414-11.77 7.4414-23.407 17.014-32.157 28.732l-7.5186-6.209c12-12.139 25.273-21.588 39.794-28.338-14.269-4.5195-23.582 7.4336-34.413 13.514-12.621 8.8125-30.772 12.951-46.025 6.8711-8.2031-3.1113-16.15-7.6934-22.09-15.141 12.004 8.2695 29.882 9.1367 43.533 3.7656 18.318-7.9453 37.354-18.018 59.437-13.201 3.4463 0.06054 6.7949 3.4922 10.051 0.57031 16.413-4.2617 34.995-1.332 49.126 6.1699l14.564 5.8379c13.537 5.0059 31.039 3.6211 42.643-4.627-5.9658 7.4258-14.115 12.746-22.531 15.76z"/>
  <path d="m557.67 415.57c-21.078 7.959-42.283-1.8106-62.479-5.0742l-3.8887-0.49414v-0.12305c9.6572-2.1914 19.031-5.0664 26.718-12.006 11.321-10.882 21.396-22.083 33.968-30.659-9.3232 11.954-10.312 28.969-25.713 36.655-3.8115 2.4941-8.6221 2.9355-12.556 4.8242 5.6094 0.1211 10.745-1.8887 16.3-2.4512 20.652-3.2422 44.278 0.08399 58.767-17.509-5.3789 12.259-18.85 22.525-31.115 26.837z"/>
  <path d="m595.97 356.27c-8.3242 5.4482-16.762 10.501-24.761 16.695v-0.76074c12.252-20.362 6.2627-48.335 13.812-70.744l2.8154-7.5068c-1.5752 13.96 4.4883 25.785 4.0625 39.793-0.42578 8.4619-3.1875 15.965-7.6309 22.722h0.75293c6.0029-7.8838 10.69-16.269 17.706-23.778 10.89-10.501 21.961-21.269 23.391-35.841 3.6982 24.327-9.9522 45.648-30.147 59.421z"/>
  <path d="m448.11 303.25h3.7768v94.822h-3.7768v-94.822z" fill-rule="evenodd"/>
  <path d="m427.61 293.94 2.668 2.6714-67.102 66.999-2.668-2.6733 67.102-66.997z" fill-rule="evenodd"/>
  <path d="m421.2 274.19-0.00586 3.7764-94.822-0.11328 0.0039-3.7768 94.824 0.11377z" fill-rule="evenodd"/>
  <path d="m430.2 255.9-2.6719 2.6694-67.041-67.06 2.6714-2.6694 67.041 67.06z" fill-rule="evenodd"/>
  <path d="m451.85 248.11-3.7769-0.00293 0.08692-94.824 3.7768 0.00391-0.08691 94.823z" fill-rule="evenodd"/>
  <path d="m470.82 257.16-2.668-2.6738 67.14-66.96 2.668 2.6733-67.14 66.96z" fill-rule="evenodd"/>
  <path d="m478.15 278.26-0.00391-3.7764 94.821-0.11914 0.00684 3.7764-94.824 0.11914z" fill-rule="evenodd"/>
  <path d="m467.2 297.56 2.668-2.6738 67.106 66.994-2.668 2.6733-67.106-66.993z" fill-rule="evenodd"/>
  <path d="m485.36 181.18c52.227 19.522 78.769 77.75 59.246 129.97s-77.75 78.766-129.97 59.244c-52.226-19.521-78.764-77.748-59.246-129.97s77.75-78.765 129.97-59.245zm-1.5283 4.0947c49.963 18.677 75.355 74.385 56.681 124.35-18.676 49.965-74.387 75.356-124.35 56.68-49.963-18.675-75.354-74.384-56.68-124.35 18.677-49.963 74.386-75.356 124.35-56.68z" fill-rule="evenodd"/>
  <path d="m477.26 202.86c40.261 15.049 60.718 59.935 45.672 100.19s-59.938 60.718-100.19 45.67-60.718-59.936-45.67-100.19 59.936-60.718 100.19-45.669zm-1.5361 4.1182c37.982 14.198 57.289 56.552 43.091 94.538s-56.555 57.291-94.537 43.091c-37.986-14.198-57.293-56.553-43.093-94.538 14.2-37.986 56.553-57.291 94.539-43.091z" fill-rule="evenodd"/>
  <path d="m469.4 223.89c28.655 10.71 43.216 42.657 32.507 71.31s-42.66 43.215-71.311 32.504-43.215-42.657-32.504-71.309 42.657-43.214 71.307-32.504zm-1.4077 3.7686c26.573 9.9331 40.079 39.561 30.146 66.133s-39.561 40.076-66.133 30.143-40.076-39.56-30.145-66.133 39.56-40.076 66.132-30.144z" fill-rule="evenodd"/>
  <path d="m460.56 247.54c15.598 5.8306 23.526 23.221 17.695 38.819s-23.22 23.524-38.818 17.693-23.524-23.22-17.695-38.818 23.224-23.524 38.818-17.694zm-1.5249 4.0767c13.351 4.9893 20.132 19.872 15.145 33.219s-19.871 20.13-33.218 15.141-20.132-19.871-15.145-33.219 19.875-20.131 33.218-15.141z" fill-rule="evenodd"/>
  <path d="m508.91 166.21c61.085 33.616 84.27 109.99 51.749 170.48s-108.49 82.304-169.57 48.689c-61.084-33.615-84.27-109.99-51.749-170.48s108.49-82.303 169.57-48.688zm-2.1377 3.98c58.867 32.395 81.209 106 49.868 164.29-31.337 58.293-104.55 79.315-163.42 46.92-58.869-32.396-81.21-106-49.87-164.29s104.55-79.314 163.42-46.919z" fill-rule="evenodd"/>
  <path d="m523.73633,334.3999c.07129.64893-.15137,2.2461.15137,2.6128 .31347.49755 1.48339.3916 1.99023.21582 1.38477-.52051 2.7627-2.3501 3.40234-3.72168 .4502-.69629.75293-1.51172.6543-2.42383l-.96875-2.93457c-.24219-1.0293-.56738-2.83838-1.66504-3.26563 .10254-.27246.4502-.69824.40918-1.08838-.25391-1.15966-2.19141-.85498-2.88379-.00341-.34863.42578-.25,1.33544-.32519,1.86718-.01953,1.0542-.31446,3.18262-.73438,4.14014s-1.59668,2.24414-1.6123,3.29785c.083.7793.91992,1.22998 1.58203,1.30371zm-64.47998-8.1416 .34424.75684c.01513.13037.17041.37841.30273.36718 .87793.8418 2.10791-1.10888.63965-1.37011-.13233.01123-.40479-.09668-.52197.04541-.25733.02441-.51856.04736-.76465.20068zm.97265-1.92627c-.59423.57715-.81005.9917.15528,1.43018l-.15528-1.43018zm-15.65918-11.46973c-.95361.87208-.88134.34229-1.36962.64893-.36329.29297-.06055.66016-.39356,1.21631-.10254.27246-.48047.4375-.45019.69824-.08741.40137.3291.62647.73388.72119 .53369.08301 2.09278-.05517 2.58057-.36133 .48096-.4375.2915-.94628.51123-1.36084 .11719-.1416.34814-.42529.46533-.56738 .05664-.66211-1.33984-1.45703-2.07764-.99512zm37.6001-4.03027 .13965,1.29981-.15137,1.06543c1.41504-.25928 2.28614-.73047 3.542-1.2378 .375-.16455 1.12402-.4956 1.41503-.25879 .417.22705.19727.63916.09473.91162-.2041.54297-1.01367,1.53663-1.3623,1.96241-1.05567,1.14453-2.61426,1.28466-3.93164,2.4541-.70801.7207-.89649,1.39404-1.6084,2.11523s-1.21485.89698-1.57813,1.1919c-.34765.42578-.05664.66211-.79394,1.12207l.41992-.95557c-.40137-.09668-.92383-.04932-1.22656-.41797-.16993-.37646-.21192-.76855-.125-1.16943 .17871-.8042.34082-2.92139.80664-3.48926 .11718-.1416 1.12793-.4956 1.50195-.66016l-.17383.8042c.38965-.03418 1.03711-.09277 1.28223-.24609 .63672-.18896 1.27539-1.56103 1.6084-2.11523l-1.7627.6831c.30664-.81543 1.17676-2.46924 1.90332-3.05957zm-34.85644,3.91455c-.26465,1.20752.47314.74561.91943,1.23194 .2876.23632.32959.62646.37109,1.01806l-1.02539.22315-.45068.69629-.5791.70947 1.75976.49951c-.88134.34082-1.41504.25732-1.979,1.09766l2.20605-.19873c1.4419.00195 2.52442.29882 3.88282-.48096l-.2876-.23633 .39355-1.21826-.97998-.56787-.34472-.75684-1.64991-1.95459-.54834-.21386c.46534-.56739 1.40381-1.57227.06397-1.84473l-.66211-.07178 .5791-.70947c-.79492-.0586-1.45703-.13086-2.05127.44824-.69629.84961-.71533,1.90186.38233,2.3291zm-.76807-16.87744-.03027.92139-.30274-.3667 .0376,1.57226c.23096.90039 1.24121.54688 1.47217.2627 .24609-.15283.31787-.68652.2915-.9458s-.18554-.50879-.3291-.62647c-.27637-.10791-.40527-.09619-.66602-.07373l-.08349-.77929-.38965.03564zm-107.03369,8.28955c-.05127,1.9751.46875,1.92774.90967,3.59668 .229.89893-.13233,1.19385.583,2.96875 .34424.75879.55616,1.52686 1.37745,1.84668-.23633-2.21191-.50733-3.50049-1.24903-5.53613-.52978-1.26612-.93457-1.36035-1.3623-2.90088l-.25879.0249zm179.43359-21.61719c-.62011.31788-.83984.73194-.76855,1.38086-.06055.66407.51465,1.13721 1.15039.94825 .88183-.34082 1.0332-2.58838-.38184-2.32911zm-122.77685-.28418c-.31983.68702-.38037,1.34913.32519,1.81104-.06982-.64893.11914-1.32471-.32519-1.81104zm38.36035.63233 .4331.35547c.95362-.87403 1.15821-1.41895 1.8545-2.26856 .57861-.70947.96875-.74365 1.33007-1.03857 .23047-.28418.20215-.54492.28907-.94629 .20459-.54492.58105-.70947.48437-1.61963 .0459-.79248-.4707-1.92822-1.36572-1.7168l-.20068-.63867c-.38965.03467-1.02539.22315-1.38672.51758-.36133.2959-.17627.80469-.65284,1.2417-.5791.70801-1.58935,1.06152-1.83544,1.21484-.37647.16651-.20411.54492-.81348.99365-.85156.60157-1.41358.25733-1.91895.43506-.63574.1875-1.57763,1.1919-2.05468,1.62891-.69629.84961-.89844,1.39453-1.18995,2.34082-.10205.27051-.31982.68457-.16259.93457s.54687.21191.79443.05859c.50537-.17578 1.61768-.80029 2.02295-.70556 .3877-.03614.54639.21338.8208.31982 .40332.09424.6626.07178.93652.17774s.5752.47461.8628.71142c.69092.33106 1.3872-.51855 1.59131-1.06152 .10205-.27246.20263-.54492.16113-.93457zm.75488-10.05274 .01514.13038-.146-.11817 .13086-.01221zm1.15039.94776c.34424.75781 1.61182,1.56299 2.33106,2.15625 .2456-.15332.36132-.29541.46338-.5669 .31982-.68603.17968-1.98779-.5127-2.31982-.41602-.2251-.92334-.04785-1.29785.1167-.01514-.12988-.18555-.5083-.3291-.62744-1.02198-.95899-2.30078,1.7832-.65479,1.24121zm-5.43213-1.74512c.87598.84082.89112.97022 2.06055.86524-.17822.80419-1.21875,2.08056-2.07031,1.50048-.56006-.34423-.6167-.86474-.88916-.97168-.41797-.22509-.4502.69727-.68115.98047-.55274.96924-1.47559.92139-1.56641,2.50586l.4917-.30859c.49951,1.00683 1.42676-.12647 2.04931-.44531-.11572.14209-.34814.42675-.44873.69726-.09082.40283.34278.75879.71924.59229 .37451-.16504.82471-.8628 1.18457-1.15821 .36328-.29394.4917-.30566.86817-.47216 .36132-.29395.83838-.73096 1.20166-1.02637 1.08593-.88526 1.14062-.36524 1.52099-1.71338-.03027-.25977.08692-.40186.0586-.66211-.5166-1.13623-2.37793-.18066-2.52393-.29785l-.8081-.19141c-.27247-.10693-.7793.07031-1.167.10547zm6.00147-.27539-.64893.05762 .17237.37842c.76611-.19971 1.28466-.24707 1.31689-1.16944-.64941.0586-.77979.06983-.84033.7334zm-40.90869,2.48682-.60205,2.94531 .26904,1.28857 .54101,2.57862c.33301-.5542.93067-2.31592.99122-2.97803l.14794-1.06543c.04541-.7915.14747-1.06299-.19677-1.8208l-.84033.73193-.05127-1.70263-.25879.02246zm42.2539-3.39698c-.083-.78076.06055-.66162.72266-.59033l-.00928-1.31299c-.37646.16504-.89502.21241-1.2583.50684-.5791.7085-.50683,1.36035.54492,1.39648zm-3.85986-1.75488 .44482.48535c.89502-.21191 1.18262.02442 1.99024.21533l-.31592-.49755 .33301-.55518c.77978-.06885.84033-.73242.51123-1.35937-.14404-.11866-.41846-.2251-.56201-.34424-1.39844-.79297-1.53076.40088-1.86377.95605l-.5376,1.09961zm3.3623-.43359c.25928-.02344.52051-.04639.76612-.19922 .47705-.4375.20849-1.72754-.21192-1.95215-.40283-.09521-.62011.31787-.59179.57813l-.08887.40332 .06982.6499 .05664.52002zm-41.74902,3.2207c.46338-.56689.62451-1.50146.68506-2.16406-.8667.47314-.7832,1.25293-.68506,2.16406zm4.60156-8.42676c.125,1.17139-.02246,2.23535-.43115,3.32276-.52246,1.22998-1.78271,2.91943-2.04736,4.12451l-.30078-.36719c-.56592.83936-.63037,2.68506-.27051,3.57178 .70752-.72022.87012-1.65479 1.30517-2.48194 .85743-1.78418 2.00196-3.33154 2.44092-5.34228 .07569-.53223.18164-1.98731-.13623-2.48389-.15722-.24902-.2876-.23681-.56006-.34375zm118.26416,3.4458c.68164-.98144.86328-2.96679 1.12403-4.17431 .61718-2.81348 1.91894-4.11231 1.54004-7.62598-.08301-.78027-.38184-2.33008-1.31641-2.50977-1.45703-.13134-.85938,1.78516-.94629,2.18702 .04199.39111-.06055.66259-.16309.93506-.63867,1.3706-.33984,2.92041-.31738,4.36328l-.27637,4.75439 .35547,2.07031zm-21.03222-22.41748c.02636.25977.16992.37891.3291.62696l.43164.35595c.83594.4502 1.27148-.37646.95312-.87451-.15429-.24853-.68847-.33203-.94921-.3081s-.51856.04638-.76465.1997zm19.42773-2.26904c.125,1.17139.59473,3.10059 1.09766,4.10596l1.14648,2.13037 1.35449,4.08252c.69629-.85059.32618-1.86865.09864-2.76758-.58594-1.78662-1.43067-3.55029-2.13379-5.19434-.48828-.87597-.84375-1.76464-1.56348-2.35693zm-7.17871-2.11426-.10547,1.4541-1.77539-.62939c-.0293.92383.38281,2.33154 1.11719,3.05322l1.42578,1.05469c1.15039.94824 2.31641,2.02637 3.34961,3.11523 .9082,1.10157.94922,1.49219 1.26367,1.98877 .28809.23633.5752.47412.9502.3086 .24609-.15332.30664-.81543.4082-1.08789l.43555-.82715c.18945-.67334-.31055-1.6792-.63965-2.30713l-.85938-1.89307c-.35937-.88769-.57519-1.65674-1.17675-2.39062-1.02149-.95947-1.80079-.88965-2.87989-1.1875l-1.51367-.65186zm-36.13184,1.79639c-.07617.53271-.12109,1.32568-.75683,1.51367-.12891.01172-.66211-.07178-.80664-.19092l-.49512,1.49024c-.21973.41308-.62842,1.50097-.58301,1.89209-.06054.66113.84766.57959 1.30957.01318 .48047-.43701.54102-1.09961.87403-1.65478 .53711-1.09913 1.53222-1.5835 1.65332-2.90723l-1.19532-.15625zm40.25293-4.92578c.38672,1.14844.65821,1.25537 1.29102,2.24951 .3291.62744.24219,1.0293 1.00586.82959-.45703-.61572-1.73242-2.73486-2.29688-3.0791zm-54.45898,6.98828c-1.45703-.13135-.49561,1.49023-.68506,2.16357-.31787.68604-1.77832,1.73682-2.48584,1.27442-.375.16552-.76465.20068-1.16943.10498s-.68897-.33203-1.07862-.29688l-2.06982,1.49951c-.36328.29493-.85156.60157-1.37353.64795-.38624.03516-.90821.08106-1.13917.36621-.36328.29395-.01904,1.05176.15528,1.43018l.6167.86475c-1.27149.37646-1.17334,1.28662-1.04834,2.45898 .07177.6499.32177,2.99219.50732,3.50098 .2002.63965 1.05176,1.21972 1.72559,1.4209 .41992.22656 1.08203.29736 1.47168.26318l.09082-1.58545 .39013-.03418 .40088,1.27832 .51856-.04736 1.61572.38135 .2876.23632c.17041.37842-.14746,1.06446-.10596,1.45508 .22705.89844 1.16553,1.07764 1.94531,1.00733-.01904,1.05224.08301.78076.02246,1.44287 .07178.65088-.31787.68603.48438,2.05859 .15918.24805.48828.87598.87793.84082 .38965-.03467 1.19971-1.02734 2.06641-1.49902 .20019.63818.21533.76904.77539,1.11328l-.18897.67334 1.47559-.92041c-.43897,2.00976-1.2749,1.55908-2.18701,2.82324-.32178.68652-.1211,1.3252-.31055,1.99902l.14404.11817 .4917-.30664 .375-.16455c1.15381-.23584.25733,1.15869.28369,1.41894 .04151.39112.31787.49658.59033.60449l-.60937.44776 .35937.88818-2.33837.20996c-1.1543.23487-2.11182,1.10889-3.08057,1.85254l.03027.26026 .40137.09521-2.24023,1.12109c.67724.20069 1.55908-.14013 2.20996-.19873 .63574-.18896.51855-.04541 1.28662-.24755l.41601.22705-.07568.53173 2.85351.9253c.67725.20215 1.16944-.1045 1.58936.12109 .56006.34424.37061,1.01758 1.30908,1.19531 1.07862.29737 1.93408-.3042 2.82715-.51611l-1.05615,1.14648 .48828.87598 1.27148-.37646c-.94238,1.00293-.89697.21191-2.71337.37451 .4165.2251 1.6538.77002 1.93017.87793 .67725.20263 1.03662-.09473 1.99024.21582 .80615.18896 1.78613.75879 2.04736-.44873 .15869.25.31787.49804.46142.61719 .417.22509.67774.20214 1.08301.29687 .53321.0835 1.79688.88916 1.74024,1.55176-.11719.1416-.23438.28369-.34766.42578-.1748-.38037-.34473-.75684-.64746-1.12402-.74512-.85352-1.88867-.48829-2.82666-.66797l-1.88867-.48633-1.45655-.13233c-.79101-.06054-1.23779-.54492-2.01709-.47509-.26123.02295-.63574.1875-.60546.44824s.31396.49805.458.61523c.83594.4502.53321.08301 1.80127.88916 .70362.46192.94971.3086 1.62696.51075l.69238.333c.53369.0835.63574-.18896 1.16943-.10595 .25733-.02246.79102.06054 1.0669.16845l-2.25489.98975-1.72949-.23828c.34424.75683.48828.87598-.09082,1.58349l-.31787-.4956c-.34814.42383-.31787.68506-.66601,1.11035l-.57911.70801c-.10205.27246-.45019.69824-.71142.7207-.38965.03613-.83252-.45019-1.12403-.68652-.56005-.34473-.8208-.32178-1.45654-.13281 .47656.7456.72266.59228 1.41113.92334 .56397.34423 2.00196,1.5288 2.44873,2.01513-.13281.01123-.26123.02295-.36328.29541-.23095.28369.02246,1.44336.3252,1.8086 .2876.23828.56396.34423.94971.31054l-1.54737,1.45313c.67725.20019.92334.04736 1.49854.52197l-1.29834.11524-1.71387-1.29004-1.78613-.76075c.66601.07178 1.71777.10987 2.33838-.20996 1.11279-.62451.583-1.89013-.27979-2.60156-.56006-.34473-.95019-.30859-1.6123-.38037-.53369-.0835-1.3545-.40479-1.87696-.35791l-1.41504.25928 .09083-.40284c-.40528-.09472-.54883-.21386-.91211.08155-.43164-.35596-.44288-.48438-.97657-.56787l.06836.64892-.59033-.60351-.05664.66211c-.31787-.49756-.33301-.62598-.87793-.83985l.43897,1.66699-.21583.41407c-.72265.59033-.71533,1.90381-.62841,2.68506 .1665,1.56103-.18164,1.98681-.31397,3.18066-.03418.92139.26856,1.28857.01904,2.62598-.07177.53173-.56787,2.02099-.7871,2.43554l-.57911.70752-.43505.82666c-.21973.41455-.57911.70948-.79834,1.12403-.20459.54297.083.78125.24218,1.02929 .21534.76807-.333.5542.57129,1.65723l-.46191.56592 .51855-.04737c-.2915.94629.29883,1.55176 1.1919,1.33985 .63574-.18945 1.33203-1.03906 1.52148-1.71436l.26123-.02295 1.74805,2.86475c.30273.36719.37451,1.01807.9082,1.10107s.73438-.45947.95362-.87402c.23095-.28369.47705-.43701.70751-.7207 .32178-.68506-.31005-1.68018-.24951-2.34278 .07178-.53125.43506-.82666.49561-1.48877-.09815-.91015-.77588-1.11279-1.22217-1.59912-.44678-.48437-.49951-1.00439-.57129-1.65527-.15527-1.43262.58252-1.89209.71875-3.08594 .04541-.79297-.40088-1.27734-.45801-1.79931-.0415-.39014.04541-.79102.43555-.82715 .89649-.21192 1.00635.83056 1.07813,1.47998l-.1211,1.32422c-.07178.53369-.29101.94629-.21924,1.59668 .18555.50927.48828.87646.65821,1.25488 .30273.3667.34472.75879.63232.99512 .27246.10595.41602.22314.67725.20068 .27246.10791.54492.21338.80615.19092 .63574-.18945 1.29004-1.43067 1.89551-1.87695 .36328-.29688.89697-.21192 1.28662-.24805-.21924.41455-.79834,1.12402-1.0293,1.40625-.4917.30615-1.38867.51806-1.43408,1.31103-.27637,1.07666 1.15039.94776 1.12012,1.86914-.06055.6626-1.0669-.1665-1.37354.64893-.43506.82715.14014,1.30225.34033,1.94141 .042.39013-.17382.80224-.26465,1.20556-.54882.96875-1.01025.35352-1.74853.81348-.62061.31982-1.30176,1.2998-1.9375,1.48926-.50293.17578-.93848-.18018-1.32813-.146-.51855.04736-.95361.87598-1.8164.16455-.87793-.8418.12109-1.32422-.09473-2.09424l-.52978-1.26611c-.7378.45996-1.46045,1.05225-1.21827,2.08154 .35938.88526 1.22217,1.59668.77198,2.29297-.36328.29541-1.14307.36524-1.74854.81397-.73779.46142-1.50586,1.84277-1.75195,1.99804-.36328.29493-.75293.32911-1.11231.62403l-1.30566,1.2998-.23096.28418-1.62695-.51123 .09814.91016c-.65087.05859-.65087.05859-1.18457-.02442-.40087-.09668-1.1958-.15527-1.3999.3877-.21972.41455.8628.71142 1.13916.81738 1.65332.77197 1.97901,2.58106 1.27149,3.30371-.47705.43506-1.29834.11524-1.83155.03223-1.1997-.15527-3.08789-.64356-4.26855-.66797-1.55957.13818-1.05957,1.14453-1.36231,1.96045-.07617.5332-.56787.83984-.65478,1.24121-.11768.1416-.10205.27246-.0874.40283-.01465-.13037.42773,1.53809.41259,1.40772 .18555.50879 1.09766.42773 1.63135.51074 .67334.20068.84766.58105 1.40723.92529 .54883.21192.79492.0586 1.30176-.11719 1.16601-.10595 2.27832.45215 4.01172-.49218 .37451-.16455.73779-.45948.83984-.73194 .34814-.42382.17432-.8042.65088-1.24121 .59424-.5791 1.74853-.81396 2.35742-1.2622 .47705-.43702.13281-1.19385 1.01416-1.53614 .63574-.1875 1.33984.27442 2.22168-.06836 .76416-.20068 1.58936-1.06152 2.35742-1.26172 .7793-.07031 1.26367.80567 2.34619,1.10303l4.29493.92676c.13232-.01123.40478.09668.54882.21582 1.15039.94629-.50732,1.3584-1.14306,1.54785-.50684.17578-.63575.18701-1.15772.23438 .14746.11767.15869.24804.30274.36718 .54882.21387 1.87304.35791 2.35351-.07959 .23096-.28369.20459-.54492.16309-.93457 .50293-.17578.74902-.3291.95361-.87402-.04199-.38965-.21582-.76807.14746-1.06348 .23096-.28369.74903-.33105 1.14258-.36718-.60547-.73194-1.09717-.42578-1.89209-.48633-.40088-.09424-.56006-.34424-.96484-.43848-.38965.03565-.74903.33106-1.29785.11719-.40479-.09668-.83643-.45215-1.23731-.54688-.42041-.22509-1.4873-.3916-1.42676-1.0542 .10205-.27246.21924-.41406.47657-.43701 .11767-.1416.24609-.15332.37841-.1665l.18555.51123c1.38525-.51855.93457.17773 2.13428.33301 1.07861.29687 2.3501-.07959 3.44726.34814 .67774.2002.45801.61475 1.04834,1.21826 .71924.59424 1.74463.36914 2.65235.2876-.11328.14209-.24512.15527-.23047.28369-.21973.41455.06836.65088.34472.75684 .97559.56982 2.42579-.61084 1.18457-1.15576l1.99415-.9668c-.96485-.43896-1.44239-.00195-2.70997-.80811 .65137-.05859.7793-.06982 1.25684-.50732l.0752-.5332 2.11132-1.10889c-.66894,1.11084.08399.78125.33692,1.94141 .65137-.0586 1.45703.13037 2.1084.07373 .50683-.17774 1.8916-.69629 2.25488-.9917 .35937-.29492.45019-.69629.80957-.99121l1.50293-.66065c.60937-.44824 1.07129-1.01562 1.53613-1.58349 .23047-.28369.46192-.56739.86719-.47119 .54492.21386.68457,1.51562.74121,2.03613 .17383.37842.35938.88525.40137,1.27685-.08008,1.71436-1.88086,2.00782-2.9668,2.89307-.72266.59033-1.27539,1.55908-2.02832,1.89014-.96875.74365-3.74316,1.78076-5.01465,2.15722l-2.69824.50489c-.62012.31982-1.34277.91015-1.54688,1.45312-.20507.54492.12403,1.17139-.49609,1.48926s-3.20508.68115-3.86767.61133c-1.0669-.16846-.70752-.46387-2.26661-.32373-1.42675.1289-2.9707.39941-4.44238.13623 .23047-.28369.69629-.85157.7832-1.25244 .10205-.27247-.0415-.39161-.07177-.65088-.01172-.12891-.042-.38965-.18555-.50879-.30273-.36719-1.33984-.27442-1.72949-.23877-.89698.21191-.7378.45996-2.16455.58838l-4.79444.56201c-2.33496.20849-4.20068,1.16553-5.10888,1.24707-.65088.05859-2.10791-.07373-2.78516-.27637-.54834-.21387-1.12354-.68847-1.74463-.36865-.63574.18896-.83984.73193-1.58887,1.06103s-2.17968.45997-3.03515,1.06153c-.85156.60205-.40674,1.08789-1.40381,1.5708-.50537.17773-2.20654.19824-2.85693.25683-1.4419-.00146-2.16504.58887-3.42286,1.09571l-1.3872.51855c-.50489.17578-1.53076.39942-1.74805.81348s.09814.91016.14014,1.30176-.0459.79101-.13477,1.19384c-.6792.98047-2.4292,1.79395-2.14355,3.21485 .22705.89892.76074.98193 1.76709,1.81055 1.32275,1.32666 2.31201,3.20898 3.73681,4.26318 1.84131,1.28076 4.50537,2.88135 6.78321,3.3335l3.95459.17041c2.11914.20263 3.74658.71533 5.97168.6455l4.88916-.83252c1.04052-.09277 2.58447-.36328 3.6665-.0664s1.29443,1.06689 3.24316.89111l2.71338-.37451c.63574-.1875 1.14258-.36524 1.83155-.03223 1.67236.90088-1.16163,2.59961.13232,3.66699 .71924.59229 3.09912.77198 4.05273,1.08008 .6626.07227 2.75098,1.19776 3.19825,1.68408 .28711.23633.31347.49756.61621.86475s.98047.56787 1.02148.95947-.79785,1.12207-1.0293,1.40577c-.71093.7207-2.08837,2.55224-1.3125,3.66503 .30274.3667 1.12403.68653 1.54395.91163l3.78809,1.10498c1.6416.6416 1.78222,1.94336 2.77734,2.6416 .7041.46338 1.87305.35742 2.79687.40674l3.90528.96289c1.3584.40527.79101,1.24316 1.85742,1.40966 2.25195.19336 5.70801-1.82568 7.54297-3.04052l3.72754-1.91114c1.49121-.79052 2.83398-1.70068 4.17773-2.60888 2.54688-1.93555 4.63184-4.48828 5.89551-7.36035 .43555-.82666 1.66895-2.77784 1.74512-3.30909 .17383-.8042-.66309-1.25488-.34082-1.93945 .41992-.95947 2.11523-2.29346 2.5205-3.37939 .33692-.55616.23829-1.46631-.32617-1.81055-.54492-.21387-.9082.08105-1.99023-.21582 .81738-2.17432 2.29687-4.27832 3.52734-6.229 .56738-.8379 1.58106-2.37452 1.60059-3.42627 .0039-1.18262-1.05274-1.22071-1.49512-1.70508-.43164-.35547-.33301-.62793-.60547-.73584-.54492-.21192-1.41504.25928-1.94824.17578-.39063.03418-.67773-.20215-.9502-.30811-.41992-.22509-.92382-.04931-1.31347-.01513-.58594-1.78614.63574-5.04834 1.23437-6.80957 1.16504-3.78272 2.72461-7.60254 2.16016-11.62354l-.59766-3.09912c-.16992-.38037-.48437-.87598-.99121-.70019-.76465.20068-1.43847,2.49414-1.75586,3.17871l-1.75586,3.18066c-.45019.69629-.74218,1.64258-1.33593,2.22119-.47754.4375-1.23047.7666-1.85059,1.08447-.20117-.63769-.5752-.47314-1.08203-.29541l-2.35449,1.26221c-.49121.30664-1.45996,1.05029-2.11133,1.10889-.51856.04736-.82129-.31983-1.58496-.1211-.51856.04737-1.40039.38965-1.80567.29297-.5332-.08301-1.1084-.55615-1.64258-.63916-.40039-.09668-1.16894.10401-1.54394.26856-1.29883.11718-3.33106-.49024-4.67383-.7627 .2461-.15332.50684-.17578.48047-.43701 .18945-.67334-.84766-1.76318.42383-2.14014l.51855-.04687 2.22071-.06836 1.28808-.24609c.66211.07226.83594.45068 1.74414.36914l3.19043-.81153c1.30176-.11767 1.82715,1.15039 3.17481.24024 1.09765-.75489 2.13086-3.34522 2.52441-4.56201l1.13477-2.86084 .43945-2.00928c.49512-1.49121.94531-2.1875.76367-3.87891l-.26465-2.47314c-.11328-1.04053-.32519-1.81055-1.39648-.79444-.82813.8628-1.12012,1.8086-2.44434,1.66504-.35156,1.6084-.1289,3.68946-1.7334,4.62256-.60937.44824-1.28613.24561-1.91796.43506-.37891.16455-.8711.47314-1.14356.36523-.38965.0337-.67676-.20263-.71875-.59228 .07227-.53174.9541-.87402 1.33203-1.03906 1.25684-.50684 1.89258-.69629 2.81934-1.82959 .56348-.83985.62402-1.50244 1.07422-2.19873 .46191-.56739.86718-.47266 1.3291-1.03858 .34766-.42578.9873-1.79736 1.32031-2.35205l1.58887-4.74121c.76855-1.3833 2.05566-1.62939 2.39258-3.36816l.20019.63964c1.37403-.64892 1.36231-1.96191 1.09375-3.25048 .7793-.07032 2.36524.04931 3.00098-.13819l2.94726-1.84082c.73829-.46191 1.95313-1.35888 2.12696-2.16308 .2041-.54297-.63965-2.30616-.94239-2.67334-.15527-.24805-.29882-.36719-.57519-.47315-.67774-.20215-1.57031.00977-2.05859-.8667-.60547-.73388-1.2754-3.30127-1.77442-4.3081-1.07519-2.66211-1.14648-2.13037-1.65039-3.13623-.3291-.62696-.26855-1.28955-.34082-1.94043-.18457-.50782-.4873-.875-.51367-1.13623-.05762-.52002.30566-.81543.6543-1.24024 .54882-.96972.46484-1.75 1.05957-2.3291 .47656-.43701.89648-.21094 1.1123-.625 .79883-1.12207-1.13086-2-.48047-3.24121 .33301-.55566 1.27539-1.55908 1.92578-1.61816 .50391-.17579.92383.04834 1.42676-.12745 .49219-.30761.52637-1.22998.73047-1.77392 .50684-1.35938 1.30176-1.29883 1.49512-3.15479 .06054-.66259.09082-1.58593-.22364-2.08252-.60547-.73486-1.45703-.13232-1.66113.41163-.45019.69628-.35156,1.60839-.26855,2.38867-.0459.79199-.19336,1.85595-.64356,2.55322-.54883.96973-1.67285.28223-1.99023-.21436-.15528-.24902-.05274-.5205-.08301-.78173 .01855-1.05274-.28418-1.41895-.01953-2.625 .07226-.53272.56738-2.02198.41308-2.27051-.04589-.39063-1.23828-1.72754-1.53711-2.0957-.58984-.60352-1.65332-1.95362-2.63671-1.33936-.86719.47119-.68555,2.16357-.84766,3.09717-.08789.40185-.26563,1.20605-.65527,1.24121-.24219.15332-.67676-.20264-.96094-.43897-.73438-.72265-1.18067-1.208-1.30567-2.37939 .40137.09473 1.4834.39258 1.5586-.14014-.05664-.52002-.67285-1.38476-1.19531-1.3374-.53321-.0835-.60547.44824-1.31348-.01318-.5752-.47412-1.85059-2.59327-2.45606-3.32764-.75976-.98291-1.8955-1.80029-3.00781-2.35742-.67383-.20117-2.86523-1.05664-3.47363-.60742-.24609.15332-.20508.54296-.30664.81445-.14356-.11719-.28809-.23633-.54492-.21338-.93848-.17822-1.21485.89746-1.27539,1.56006 .02636.25976.083.78125-.292.9458s-.66601-.07178-.9541-.30908c-.7041-.46192-.71875-.59229-1.66894-.90088 .18554.50879.37109,1.01807.68554,1.51465 .76368.98291 1.28223.93554 1.16114,2.26123-1.09375-.42774-2.33106-.97266-3.08008-1.82617l1.01074-.35352-.02734-.25928c-.41602-.22607-1.84278-1.28027-1.89942-1.80029-.04199-.39063.47657-.43799.43555-.82813 .09082-.40185-.3291-.62695-.125-1.17089 .34766-.42578 1.10059-.75586 1.04395-1.27637-.03028-.26025-.31739-.49658-.58985-.60352-.56055-.34423-1.55566-1.04248-2.14941-.46435-.47657.43701-.11719,1.32422-.38184,2.53027-.40527-.09424-1.09765-.42724-1.49902-.52197-.53321-.0835-1.1543.23437-1.84668-.09668-.95313-.30908-1.29395-1.0669-2.11524-1.3877-1.51367-.65185-2.78515-.27441-4.20019-.01611-.64746.05762-1.68848.15137-2.3086.46924-.49218.30762-.71191.7207-.92773,1.13428-.57812.70947-1.72168,1.07373-1.60742,2.11425 .22656.89991 1.02148.96045 1.30859,1.1958l.8291,1.63477c-.89355.21094-1.31347-.01318-2.08886.05615l-3.07666.66944c-1.57422.01074-2.0625-.86524-3.02735-1.3042-.54492-.21387-.93457-.1792-1.35449-.4043-.43164-.35449-.47314-.74512-.61719-.86475-.30273-.36572-1.62695-.51074-2.0166-.47558 .02637.26123.04151.39062-.18945.67334-.21924.41455-1.33203,1.04004-1.85059,1.08642-.2456.15332-.65088.0586-.92334-.04834l.07227-.53271c.06055-.66113-.32959-.62647-.83252-.4502-.76856.2002-1.22998.76709-1.83936,1.21582 .21973-.41357.42383-.95752.77198-1.38232 .47705-.43701 1.11279-.62646 1.73339-.94434l1.96387-1.22705c.4917-.30664 1.24512-.63769 1.60449-.93261 1.08594-.88575 1.31299-3.66407 1.0293-5.08399-2.00928.83594-1.47607.91944-2.83447,1.69873-.4917.30664-.75293.33057-1.12744.49512-.35987.2959-.45069.69824-.5376,1.09912zm13.78223-4.7832 1.27929.93652 .97559,1.75098c.75-.33008.85156-.60157 1.35937-.77832 .24512-.15332 1.86133.22705 1.48633-.79004l-.43066-.35547-.08692.40185c-.43164-.35547-1.00683-.82959-1.55566-1.04345s-2.38086-.17969-3.02734-.12207zm4.39746.65673c1.8164-.16259 1.50195-.66064 2.54297-.75341 .50293-.17774 1.30859.01367 1.84277.09668l-.07227.53173c1.09375.42774 1.02539-.22314 1.83204-.0332 .82128.3208 1.32421,1.32764 2.67871,1.73047 .54492.21484.82129.3208 1.31347.01416 .31348.49756.44629.48633.96485.43896 .06054-.6621.43457-.82763.26074-1.20605s-1.54004-.91309-1.65723.41211c-.46191-.6167-.21582-.77002-.38574-1.14746-.46191-.6167-1.38477-.66504-2.02148-.47656-.26856-1.28955-.09766-.91114-1.89551-1.8003-.56348-.34375-1.80078-.88965-2.4668-.96142-.79101-.06055-.99512.4834-1.61621.80224-.34766.42578-.75293.33008-1.1123.62549-.34864.42481-.26465,1.20606-.20801,1.72656zm27.44336-5.74755 1.64257,1.82421c.61719.86377 1.2334,1.72852 1.96778,2.4502 .57519.47412 1.39648.79492 2.16113.59521 .50684-.17724 2.03906-1.75976.78711-2.43603-.41699-.22461-1.04102.09375-1.42676.12842 .03028-.92237-.02636-1.44287-.2539-2.34229-.02637-.26025-.08301-.78027-.59082-.60351-.62012.31884.11035,2.22314-.87012,1.65429l-.41602-.22509-.43164-.35547c-.46484.5664.08301.78027.53028,1.26562 .57519.4751 1.01757.96045 1.10449,1.74072-1.41113-.92529-1.49414-1.70459-2.40235-2.80566-.58691-.60449-1.01855-.96045-1.80175-.89062zm5.63476-1.29297c.35547.8872 1.74805,2.86474 2.70215,3.17285-.64746-1.12403-1.47949-2.75781-2.70215-3.17285zm-96.14941,9.54638 1.16894-.10498 3.38721,1.00977c.93848.17871 1.86182.22754 2.47852,1.09131-1.68799.15234-1.32813-.14356-2.66797-.417-1.1958-.15527-1.55908.14014-2.48242.09083-.5337-.0835-.80616-.18995-1.21094-.28467l-3.47754.57422c-.92334-.04834-1.12402-.68702-1.67285-.90088-.56006-.34424-1.0669-.16748-1.55908.14013-.87793.3418-1.73292.94336-2.58643,1.5459-1.59131,1.06153-3.42627,2.27783-4.57129,3.82569-.79639,1.12207-.59766,1.76171-1.39453,2.88378-.80957.99219-2.67529,1.94776-3.93555,3.63819-.91357,1.26416-.83056,2.04443-1.17676,2.47021-.23291.28272-1.8374,1.21582-2.21386,1.38037-.37451.16456-.76416.19971-1.01026.35401-.36132.29492-.5791.70849-.79834,1.12256l-1.28662,1.42871c-.33301.55517-1.68408,2.64697-1.75781,3.17969-.03223.92236 1.45508,1.31494.66992,2.56738l-.34668.42578c-.85303.60156-1.08203-.29785-1.74414-.36963-.8081-.19043-2.00928.83691-2.72851.24463-.44629-.48535-.25538-1.15869-.31006-1.67969-.20069-.63867-.48828-.87549-.67383-1.38428-.33106-.62841-.06787-1.83447-.98779-3.06543-.47266-.74511-1.01954-.95898-1.44141-.00048l-.30664.81445c-.51465-1.13525-.22363-2.08154-1.16211-2.26123-1.19531-.1543-1.56055,1.32373-2.25684,2.17383-1.7373,2.12695-2.02636,1.89013-3.35693,2.92822l-1.76514,1.8667-1.10107.75586c-.59229.57861-.98584,1.79639-1.29053,2.61181l-1.27344,5.23829c-.27832,1.0747-.7456,2.82666-1.88623,3.18994-.375.16455-1.55908.14013-1.9624.04541-.41797-.2251-.71875-.5918-1.12207-.68848-.38965.03613-1.43017.12842-2.39502-.31055-.57519-.47265-1.33594-1.45654-1.88476-1.66845-.54688-.21582-1.0669-.16846-1.58545-.1211-.65088.05664-1.55908.13965-2.09278.05664-1.35449-.4038-2.229-2.42773-2.74365-3.56396-.18506-.50879-.52978-1.2666-.94775-1.4917-.5752-.47412-1.26953.37646-1.94678.1748-.53369-.08398-1.71436-1.29101-2.40478-1.62402-.14405-.11865-.57715-.47314-.82129-.31982-.25928.02246-.33496.55615-.43555.82666-.01856,1.05322.271,1.28955.87256,2.02441 .14355.11768.59033.60401.22705.89893-.60547.44824-1.47949-1.5752-2.16065-.59424-.10254.27246-.0874.40234-.20459.54297l-.25927.02392-.62793-2.17675-.09668-.91114-.87403-2.02343-1.0708,1.01562-.25586-1.15967-.35742-.8872c-.20068-.63868-.71875-.59229-1.21094-.28614-.96875.74463-1.63867,1.85547-2.24414,2.30371-.73779.46094-1.2998.1167-1.80468.29346-.62061.31885-1.05616,1.14551-1.24707,1.82031l-.99903,5.34424c-.86474,4.15088-1.41699,5.11963-.94043,9.54346l.52588,2.44873 .49414,3.37158 .44092,1.66846 .26074-.02442c-.18164-1.6914-.12842-4.84961.35205-6.46875 .46924-1.74853 1.21875-2.07959 1.25635-4.18554l.31055,1.68213c.70947-.72315.65429-1.24317 1.6499-1.72559 .33105.62598.47461.74561.68848,1.51562 .20068.63721.25537,1.15772.58642,1.78614s.60205.73388.91797,1.23144c.30274.36524.50147,1.00489.68652,1.51367 .35987.8877.64356,2.3086 1.72364,2.60547 .42236-.95752.29736-2.12841.3125-3.18213 .10205-.27246.14941-1.06347.39355-1.21679 .63574-.18946.89307.9707.93457,1.36035 .3711,1.01807.6416,2.30859 1.2583,3.1709 .64502,1.12597 1.15235.94824 1.9961,2.71142l.19092-.67334c.35791.88721-.09229,1.58545.88769,2.15332-.05664-.5205-.1626-2.74365.05273-3.1582 .10254-.27246.49219-.30664.75342-.3291l.60547,4.41211c.05469.52051.25342,1.16016.55615,1.52734 .73389.72266 1.58741.11914 1.91651.74707l.51269,2.31787c.44092,1.66895 1.05616,3.71631 1.74073,5.22998 .5166,1.13672 1.20361,2.65235 2.08154,3.49268 .30273.36719.74756.85352 1.25244.67529 .50732-.17578.30664-.81543.39356-1.21631 .07568-.53173.31982-.68505.40869-1.08789 .06054-.66259-.15528-1.43261.17773-1.98681-.17383.8042.09863.91015.18359,1.6914 .11182,1.04053.36719,2.20069.73975,3.2168 .55664,1.52881.9707,2.93457 1.90381,4.29688 .61865.86474 2.04346,1.91845 2.90625,2.62988 1.18066,1.20703 2.34424,2.28564 3.76904,3.33935l1.69922,1.16211 1.41113.9253c1.25293.67529 1.38526-.52051 2.16455-.58887 .40479.09473 1.82764,1.14844 2.25928,1.50439 2.1875,2.0376 1.46826,1.4458 2.97803,3.28077l3.40576,3.63476c.87793.84033 1.96777,2.45215 3.16553,2.60547l1.19775.15723c1.33985.27441 2.83838.79638 4.23828.40674 .52051-.04737.88184-.34083 1.11426-.62452 .34668-.42578.55078-.96875 1.07129-1.01611 .5332.0835 1.77295.62842 2.31934.84375 1.3833.6626 3.34179,1.80127 4.81201,2.0625s2.52783-.8833 2.28564-1.9126c-.37109-1.01806-1.92627-2.06054-2.75683-3.69336-.8042-1.37207-1.36035-2.89892-2.28028-4.13086l-2.11132-2.56933-1.26416-1.98877-.6167-.86426c-.1587-.24805-.38575-1.14697-.42774-1.53857l-1.44531-3.68018c-.65869-1.25439-1.96045-1.13721-2.8042-2.90039 .60351.73389 1.75586,1.68213 2.57519,2.00195-.3706-1.01806-1.20166-2.65088-1.82031-3.51562l-1.32226-1.32617c.71875.59179 1.29394,1.06689 2.23242,1.24462l.27637-1.07666c.40869-1.08789.7832-1.25244.77392-2.56543-.10791-2.22314-2.16113-5.45507-2.4541-8.18701-.12695-1.17138.13623-2.37646.27051-3.57031l.03613-2.10596c-.04199-.39013.18897-.67578.26465-1.20556l-.02442-1.44336c.17579-.8042.27784-1.07666.19483-1.8584l-.62842-2.17578-.0376-1.57422-.22509-2.08106c-.16846-1.56103.67138-2.29345.81933-3.35693 .07568-.5332-.59814-1.91846-.88769-2.15478-.41797-.2251-1.31104-.01319-.99317-.69825s1.49854.52198 1.80127.88916c.37842-1.34716.09082-1.58545-.16455-2.74463l-.49414-3.37158c-.22705-.89941-.80225-1.37256-.8457-1.76318 .08886-.40234.47851-.4375.94043-1.00391 .46533-.56738.65478-1.24121.71533-1.90332l.02246-2.23584c.146-1.06396 1.04443-2.45849 2.1875-2.82373 1.1543-.23437 2.33301.97266 2.98193.91504s.96875-.74365 1.18799-1.1582l1.49854-4.33838 .26123-.02393c.64502,1.12598 1.32275,1.32715 2.19873,2.16846l.74902.85254c.14404.11816.39014-.03516.63574-.18848 .46192-.56689 1.01807-2.71875.68897-3.34619-.18555-.50879-.76074-.98291-.96143-1.62158-.0415-.39063.17627-.8042.39356-1.21729 .30664-.8164.46777-1.75048 1.05957-2.3291 1.17334-1.28759 3.51172-1.49804 4.93652-.44287 .72119.59229.63037.99414.93311,1.36133 .44629.48535 1.09521.42773 1.30908,1.19678 .02832.26025-.03028.92236-.11914,1.32422 .08496.78076.24023,1.02929-.06446,1.84472-.43505.82715-1.15771,1.41748-1.45117,2.36328-.40674,1.08789.25733,1.16016.09473,2.09375-.2915.94629-1.00098,1.667-1.29248,2.6128-.33496.55566-.27783,1.07568-.8833,1.52441-.49219.30615-1.28662.24658-1.80518.29297-.76611.19971-1.37353.64893-1.99414.96728 .02637.26075.05469.52002.21192.76905 .21533.76904.86474.71045 1.49853.52197 1.02539-.22217 2.38379-1.00195 3.39258-.17285 .87598.8418 1.14258,3.31396 1.89014,4.16601 .71875.59229 1.23925.5459 2.04687.73633 .54688.21387.96533.43897 1.39648.79444 1.00684.82861.68897,1.51464 1.14649,2.12988 .43164.35449.8081.19189 1.25293.67627l1.90869,3.1123 1.31543-1.16894c.44629.48584.9668.43847 1.02539-.22363-.0415-.38965-.25342-1.15772-.42773-1.53809 .87793.8418.94824,1.49268.94433,2.67529 .02832.25928-.07373.53174.08496.78174 .05518.51807.68701,1.51367 1.11817,1.86914 .56201.34229.93652.17774 1.42871-.12891 .45019-.69628.71338-1.90332 1.40771-2.75292 .58106-.70948 1.73487-.94385 2.77783-2.2212-.27246-.10595-1.09375-.42578-1.00683-.82861 .2041-.54297.98389-.61328 1.47558-.92041 .72315-.59033 1.2754-1.56006 1.43653-2.49316l-1.58789-.1211-.93653-.17871-1.2998.11768-1.27881-.93701-1.84668-.09717c.31787-.68506.53711-1.09961 1.3169-1.16944 .38964-.03515.93652.17969 1.18261.02637 .50489-.17773.44825-.69824.81153-.99316 .69433-.85059 1.71777-1.07373 1.86767-2.13819 1.0669.16651 1.29981-.11621 1.83155-.0332 1.09521.42676 1.43603,2.36719 1.9375,3.37354-1.35499-.40381-1.09961.75537-1.13184,1.67773 .49219-.30664 1.07129-1.01514 1.57617-1.19238l1.70313-.02149c.38964-.03515.50488-.17627.88183-.34179 .89453-.21094 1.48487.39257 1.95801,1.13818 .49219-.30664.46387-.56738.14746-1.06445l.64941-.0586-.37109-1.0166c-.64892.05762-.79492-.06055-.98389.61279-.56005-.34326-.56005-.34326-1.22412-.41552l.47852-.43604-.03027-.26123c-1.1084-.55713.16308-.93359.35205-1.60791 .08886-.40234-.06787-.6499-.22705-.89892l1.63281-.67237c.69433-.84961 1.28467-.24609 1.57617-1.19238 1.33984.27441.89893-1.39404 1.91113-1.74805 .24414-.15332.64698-.05762.90821-.08154l1.12744-.49463c.51855-.04639.77978-.06885 1.28271-.24707 .49219-.30615.94238-1.00342 1.29053-1.42822 .23096-.28516.70752-.72119.81006-.99366 .08691-.40185-.0835-.77929-.15137-1.43115 .5332.08301.92334.04834 1.26758-.37646 .36328-.29541.30664-.81592-.24219-1.0293l-.64697.05859 1.79346-1.60644 .35205-1.6084-.50733.17676 .17822-.8042-1.43066.12891c.23096-.2837.92725-1.13428 1.1582-1.41797 .60938-.44873 1.27149-.37647 1.57813-1.19336-1.2832.24707-2.86084,1.43945-3.6709,2.43164l-1.26416,1.68945 .07617-.53174c-1.27148.37744-1.18847,1.15821-1.68066,1.46485l-.24561.15283c.38965-.03467-2.22119.06836-1.8164.16406-.66407-.07226-1.3833-.66406-1.9585-1.13916-.43311-.35498-.73242-.72168-1.22412-.41455l-2.43311-1.8833c.23047-.28369.34815-.42578.06055-.66309s-.96484-.43896-1.52685-.78271c-1.00879-.82861-.96143-1.62158-1.08838-2.79248-.10938-1.04053-.24219-1.0293-.59766-1.91699-.17236-.3794-.20068-.63916-.50342-1.00635s-1.00635-.82861-1.43799-1.18457c-.57519-.47315-1.29394-1.06592-1.958-1.13819-.93653-.17773-1.65967.4126-2.46924.22168-.67725-.20166-1.55371-1.04248-2.37451-1.36328-.5337-.08349-1.18262-.0249-1.70313.02149-.02832-.26026-.08496-.78028-.35742-.88721-.41651-.2251-1.16943.10498-1.68799.15137s-.69238-.33203-1.09521-.42774c-.40332-.09472-2.23682-.06152-2.46924.22168-.2461.15381-.07227.53223-.04541.79248zm92.82715-13.58398c1.06347,1.34961 2.96289,3.1499 4.56347,3.40088-.47265-.74658-.87793-.84082-1.45312-1.31494-.84766-.58106-2.28906-1.76563-3.11035-2.08594zm-10.39942-5.24121-.3291-.62744c.54883.21289 1.09766.42675 1.41211.92431 .16992.37842.2002.63868.24219,1.0293 .08301.78076 1.44922,2.49756 2.24023,2.55713 .27539.10693.26074-.02246.52149-.04639l-.66993-2.56738c-.30273-.36719-.67675-.20166-1.12304-.68701l-2.70215-3.17383c-.15918-.24902-.76074-.98291-.67383-1.38428 .23047-.28369.88184-.34228 1.14258-.36474l-2.47461-2.27442c-.28809-.2373-.73437-.72265-1.24121-.5459-.50391.17676-.69336.85059-.91309,1.26368s-.56347.83935-.52246,1.22998c.18555.50927.77637,1.11279 1.07617,1.47949l2.30469,1.89502c.58985.60449.88867.97168 1.70996,1.29248zm33.67578-.26319c-.34082-1.94043-1.58984-3.79834-3.05371-5.24316l-2.30468-1.89551c-.88965-.9707-1.85059-2.59228-3.16016-3.78906-1.4375-1.18457-2.51953-1.48145-3.79883-2.41797l-2.17578-1.90723-3.88281-3.19873c-1.00684-.82861-2.20215-2.16748-2.96289-3.14941-.77637-1.11328-.55664-1.52686-1.00293-2.01221-.30274-.36718-1.39649-.79492-1.92969-.87793l.2041-.54394-.96484-.43897c.53711-1.09912-.21582-.76904-.97657-1.75097-.30273-.36719-.35546-.88868-.83203-1.63379-.74609-.85254-1.74121-1.55176-2.71777-2.12012l-4.7373-2.59717c-1.5293-.78222-3.61915-1.90918-5.33301-2.01758-1.31348-.01367-2.15332.71875-3.44043.96485-1.15332.23535-3.64746.19678-4.44629,1.31885-.80957.99218 1.21875,2.78125 1.95312,3.5039l2.05469,2.04834c.59082.60449.76074.98291 1.36231,1.7168 .5791.47412 1.69921,1.16211 2.16113,1.77685 .45801.61573-.30664.81641.30957,1.68018 .47363.74561 1.62793,1.69336 1.97266,2.45117 .18554.50879.26855,1.28955.70019,1.64551 .41602.2251.9082-.08252 1.29785-.11768 .63574-.18798 2.50196-1.14355 3.06153-.79931s2.47461,2.27344 2.92187,2.75976c.28711.23633.87402.83985.78711,1.24317 .07129.6499-1.97559-.08643-1.4873.78955 .1582.24902 1.41113.92431 1.84277,1.28027l1.59668,1.43311 1.85449,1.40966c.43164.35596.9043,1.10108 1.32422,1.32667 .82129.32031 1.24121-.63672 1.94922-.1753 1.38086.66406 2.37207,2.54688 3.81055,3.73096 .97656.56885 1.22167.41553 2.04296.73633 .69239.33203 1.13965.81738 1.84278,1.27978 1.10937.55713 1.20019.15528 2.49414,1.22168 1.72558,1.4209 3.19433,2.86621 4.67383,4.44141 .58984.60351 2.04296,1.91846 2.7207,2.12012l.38965-.03467 1.4873-.79004c0,0 .13281-.0127.11719-.14209 .08691-.40186.03027-.92236.11719-1.32471s.33691-.55517.40918-1.08789c.08691-.40088.0039-1.18262.37793-1.34717 .3789-.16552 1.09765.42676 1.37011.53369zm-31.70019-33.80957c-.05664-.5205-.2002-.63867-.38574-1.14746-.77637-1.11279-1.63868-1.82324-2.86524-2.23974-.40039-.09424-1.61133-.38037-1.83105.0332-.33301.55518 1.07812,1.48047 1.49414,1.70557 .43164.35498.98047.56884 1.41211.9248 .83593.4502 1.2373.54541 2.17578.72363zm-50.8794-10.93652c1.71827.10791 2.36524.05029 4.00733.69043 1.49853.52246 2.37646,1.36328 4.09472,1.47217l-1.92626-2.06055 1.09765-.75488c-.57519-.47412-.83252-.45117-1.39648-.79443-.2876-.23682-.31397-.49756-.60157-.73438l-1.16943.10498c-.76807.19971-1.40039.38916-2.28174.73047-.76855.19971-1.79004.42285-1.82422,1.34619zm7.875-3.59668c-.18945.67334-.82519.86182-1.43408,1.31006 .14356.11816.15869.24902.30274.36719 .41992.22509 2.5542.55908 3.08789.64306 1.31299.01368 1.3584-.77832 2.90234-1.04882l1.93359-.30469c1.81641-.16358 4.29883-.2544 5.91846-1.05664-.6167-.86377-1.00635-.83008-1.95654-1.13819-1.48682-.39257-3.07276-.51269-4.58985.01709-1.40039.38868-1.34375.90918-3.16357,1.07276l-3.00098.13818zm-27.58691,222.66113c-30.33398-6.47656 6.17041,1.28516 0,0z"/>
 </g>
</svg>
